{"asset":{"version":"2.0","generator":"Blockbench 5.1.4 glTF exporter"},"scenes":[{"nodes":[16],"name":"blockbench_export"}],"scene":0,"nodes":[{"translation":[0,0.0625,-0.5],"name":"body","mesh":0},{"translation":[0,0.0625,-0.5],"name":"window","mesh":1},{"translation":[0,0.0625,-0.5],"name":"spoiler","mesh":2},{"translation":[0.0625,0.359375,-0.40625],"name":"rudder_1","mesh":3},{"translation":[-0.0625,0.359375,-0.40625],"name":"rudder_2","mesh":4},{"name":"rudders","children":[3,4]},{"translation":[-0.0625,-0.328125,0],"name":"thruster_housing","mesh":5},{"rotation":[0,0,0.3826834323650898,0.9238795325112867],"translation":[0.171875,-0.28125,-0.0625],"name":"thrusters","mesh":6},{"translation":[0.0625,0.359375,-0.34375],"name":"thruster","children":[6,7]},{"rotation":[0,0,-0.3624380382837016,0.9320078692827986],"translation":[0.09375,0.125,0.5],"name":"f_left","mesh":7},{"rotation":[0,0,0.3624380382837016,0.9320078692827986],"translation":[-0.09375,0.125,0.5],"name":"f_right","mesh":8},{"name":"front","children":[9,10]},{"rotation":[0,0,0.3007057995042731,0.9537169507482269],"translation":[-0.21875,0.125,-0.125],"name":"b_right","mesh":9},{"rotation":[0,0,-0.3007057995042731,0.9537169507482269],"translation":[0.21875,0.125,-0.125],"name":"b_left","mesh":10},{"name":"back","children":[12,13]},{"name":"mini boosters","children":[11,14]},{"name":"root","children":[0,1,2,5,8,15]}],"bufferViews":[{"buffer":0,"byteOffset":0,"byteLength":1416,"target":34962,"byteStride":12},{"buffer":0,"byteOffset":1416,"byteLength":1416,"target":34962,"byteStride":12},{"buffer":0,"byteOffset":2832,"byteLength":944,"target":34962,"byteStride":8},{"buffer":0,"byteOffset":3776,"byteLength":324,"target":34963},{"buffer":0,"byteOffset":4100,"byteLength":264,"target":34962,"byteStride":12},{"buffer":0,"byteOffset":4364,"byteLength":264,"target":34962,"byteStride":12},{"buffer":0,"byteOffset":4628,"byteLength":176,"target":34962,"byteStride":8},{"buffer":0,"byteOffset":4804,"byteLength":60,"target":34963},{"buffer":0,"byteOffset":4864,"byteLength":768,"target":34962,"byteStride":12},{"buffer":0,"byteOffset":5632,"byteLength":768,"target":34962,"byteStride":12},{"buffer":0,"byteOffset":6400,"byteLength":512,"target":34962,"byteStride":8},{"buffer":0,"byteOffset":6912,"byteLength":180,"target":34963},{"buffer":0,"byteOffset":7092,"byteLength":624,"target":34962,"byteStride":12},{"buffer":0,"byteOffset":7716,"byteLength":624,"target":34962,"byteStride":12},{"buffer":0,"byteOffset":8340,"byteLength":416,"target":34962,"byteStride":8},{"buffer":0,"byteOffset":8756,"byteLength":156,"target":34963},{"buffer":0,"byteOffset":8912,"byteLength":624,"target":34962,"byteStride":12},{"buffer":0,"byteOffset":9536,"byteLength":624,"target":34962,"byteStride":12},{"buffer":0,"byteOffset":10160,"byteLength":416,"target":34962,"byteStride":8},{"buffer":0,"byteOffset":10576,"byteLength":156,"target":34963},{"buffer":0,"byteOffset":10732,"byteLength":1344,"target":34962,"byteStride":12},{"buffer":0,"byteOffset":12076,"byteLength":1344,"target":34962,"byteStride":12},{"buffer":0,"byteOffset":13420,"byteLength":896,"target":34962,"byteStride":8},{"buffer":0,"byteOffset":14316,"byteLength":312,"target":34963},{"buffer":0,"byteOffset":14628,"byteLength":864,"target":34962,"byteStride":12},{"buffer":0,"byteOffset":15492,"byteLength":864,"target":34962,"byteStride":12},{"buffer":0,"byteOffset":16356,"byteLength":576,"target":34962,"byteStride":8},{"buffer":0,"byteOffset":16932,"byteLength":216,"target":34963},{"buffer":0,"byteOffset":17148,"byteLength":288,"target":34962,"byteStride":12},{"buffer":0,"byteOffset":17436,"byteLength":288,"target":34962,"byteStride":12},{"buffer":0,"byteOffset":17724,"byteLength":192,"target":34962,"byteStride":8},{"buffer":0,"byteOffset":17916,"byteLength":72,"target":34963},{"buffer":0,"byteOffset":17988,"byteLength":288,"target":34962,"byteStride":12},{"buffer":0,"byteOffset":18276,"byteLength":288,"target":34962,"byteStride":12},{"buffer":0,"byteOffset":18564,"byteLength":192,"target":34962,"byteStride":8},{"buffer":0,"byteOffset":18756,"byteLength":72,"target":34963},{"buffer":0,"byteOffset":18828,"byteLength":288,"target":34962,"byteStride":12},{"buffer":0,"byteOffset":19116,"byteLength":288,"target":34962,"byteStride":12},{"buffer":0,"byteOffset":19404,"byteLength":192,"target":34962,"byteStride":8},{"buffer":0,"byteOffset":19596,"byteLength":72,"target":34963},{"buffer":0,"byteOffset":19668,"byteLength":288,"target":34962,"byteStride":12},{"buffer":0,"byteOffset":19956,"byteLength":288,"target":34962,"byteStride":12},{"buffer":0,"byteOffset":20244,"byteLength":192,"target":34962,"byteStride":8},{"buffer":0,"byteOffset":20436,"byteLength":72,"target":34963}],"buffers":[{"byteLength":20508,"uri":"data:application/octet-stream;base64,"}],"accessors":[{"bufferView":0,"componentType":5126,"count":118,"max":[0.375,0.4375,1.359375],"min":[-0.375,0,0.09375],"type":"VEC3"},{"bufferView":1,"componentType":5126,"count":118,"max":[1,1,1],"min":[-0.9838699102401733,-1,-1],"type":"VEC3"},{"bufferView":2,"componentType":5126,"count":118,"max":[0.859375,0.640625],"min":[0,0],"type":"VEC2"},{"bufferView":3,"componentType":5123,"count":162,"max":[117],"min":[0],"type":"SCALAR"},{"bufferView":4,"componentType":5126,"count":22,"max":[0.20284812152385712,0.375,1.1875],"min":[-0.20284812152385712,0.25,0.250034362077713],"type":"VEC3"},{"bufferView":5,"componentType":5126,"count":22,"max":[0.821037769317627,0.9970544576644897,0.2228250503540039],"min":[-0.821037769317627,0.5305648446083069,-0.11040306091308594],"type":"VEC3"},{"bufferView":6,"componentType":5126,"count":22,"max":[0.4963900148868561,0.4438542127609253],"min":[0.3629849851131439,0.203125],"type":"VEC2"},{"bufferView":7,"componentType":5123,"count":30,"max":[21],"min":[0],"type":"SCALAR"},{"bufferView":8,"componentType":5126,"count":64,"max":[0.25,0.5,0.265625],"min":[-0.25,0.125,0.09375],"type":"VEC3"},{"bufferView":9,"componentType":5126,"count":64,"max":[1,1,0.8814815282821655],"min":[-1,-1,-1],"type":"VEC3"},{"bufferView":10,"componentType":5126,"count":64,"max":[0.5,0.7629437446594238],"min":[0.109375,0],"type":"VEC2"},{"bufferView":11,"componentType":5123,"count":90,"max":[63],"min":[0],"type":"SCALAR"},{"bufferView":12,"componentType":5126,"count":52,"max":[0.015625,0.109375,0.140625],"min":[-0.015625,-0.125,-0.125],"type":"VEC3"},{"bufferView":13,"componentType":5126,"count":52,"max":[1,1,0.9899494647979736],"min":[-1,-1,-1],"type":"VEC3"},{"bufferView":14,"componentType":5126,"count":52,"max":[0.3125,0.6640625],"min":[0,0],"type":"VEC2"},{"bufferView":15,"componentType":5123,"count":78,"max":[51],"min":[0],"type":"SCALAR"},{"bufferView":16,"componentType":5126,"count":52,"max":[0.015625,0.109375,0.140625],"min":[-0.015625,-0.125,-0.125],"type":"VEC3"},{"bufferView":17,"componentType":5126,"count":52,"max":[1,1,0.9899494647979736],"min":[-1,-1,-1],"type":"VEC3"},{"bufferView":18,"componentType":5126,"count":52,"max":[0.40625,0.6953125],"min":[0,0],"type":"VEC2"},{"bufferView":19,"componentType":5123,"count":78,"max":[51],"min":[0],"type":"SCALAR"},{"bufferView":20,"componentType":5126,"count":112,"max":[0.375,0.1875,0.375],"min":[-0.375,0.078125,-0.078125],"type":"VEC3"},{"bufferView":21,"componentType":5126,"count":112,"max":[0.8956591486930847,0.9976303577423096,1],"min":[-0.8956591486930847,-0.9976303577423096,-1],"type":"VEC3"},{"bufferView":22,"componentType":5126,"count":112,"max":[0.78125,0.6768648624420166],"min":[0.0065418751910328865,0],"type":"VEC2"},{"bufferView":23,"componentType":5123,"count":156,"max":[111],"min":[0],"type":"SCALAR"},{"bufferView":24,"componentType":5126,"count":72,"max":[0.046875,0.39284563064575195,0.0625],"min":[-0.26784563064575195,0.078125,-0.1875],"type":"VEC3"},{"bufferView":25,"componentType":5126,"count":72,"max":[1,1,1],"min":[-1,-1,-1],"type":"VEC3"},{"bufferView":26,"componentType":5126,"count":72,"max":[0.69921875,0.671875],"min":[0,0.15625],"type":"VEC2"},{"bufferView":27,"componentType":5123,"count":108,"max":[71],"min":[0],"type":"SCALAR"},{"bufferView":28,"componentType":5126,"count":24,"max":[0.10669437795877457,0.15814562141895294,0.0625],"min":[-0.0625,0,-0.0625],"type":"VEC3"},{"bufferView":29,"componentType":5126,"count":24,"max":[0.9953322410583496,0.9787342548370361,1],"min":[-1,-0.9675379991531372,-1],"type":"VEC3"},{"bufferView":30,"componentType":5126,"count":24,"max":[0.46875,0.11522263288497925],"min":[0.30085718631744385,0],"type":"VEC2"},{"bufferView":31,"componentType":5123,"count":36,"max":[23],"min":[0],"type":"SCALAR"},{"bufferView":32,"componentType":5126,"count":24,"max":[0.0625,0.15814562141895294,0.0625],"min":[-0.10669437795877457,0,-0.0625],"type":"VEC3"},{"bufferView":33,"componentType":5126,"count":24,"max":[1,0.9787342548370361,1],"min":[-0.9953322410583496,-0.9675379991531372,-1],"type":"VEC3"},{"bufferView":34,"componentType":5126,"count":24,"max":[0.546875,0.640625],"min":[0.41023218631744385,0.0625],"type":"VEC2"},{"bufferView":35,"componentType":5123,"count":36,"max":[23],"min":[0],"type":"SCALAR"},{"bufferView":36,"componentType":5126,"count":24,"max":[0.0625,0.15814562141895294,0.0625],"min":[-0.10669437795877457,0,-0.0625],"type":"VEC3"},{"bufferView":37,"componentType":5126,"count":24,"max":[1,0.9787342548370361,1],"min":[-0.9953322410583496,-0.9675379991531372,-1],"type":"VEC3"},{"bufferView":38,"componentType":5126,"count":24,"max":[0.6210178136825562,0.6875],"min":[0.5039821863174438,0.140625],"type":"VEC2"},{"bufferView":39,"componentType":5123,"count":36,"max":[23],"min":[0],"type":"SCALAR"},{"bufferView":40,"componentType":5126,"count":24,"max":[0.10669437795877457,0.15814562141895294,0.0625],"min":[-0.0625,0,-0.0625],"type":"VEC3"},{"bufferView":41,"componentType":5126,"count":24,"max":[0.9953322410583496,0.9787342548370361,1],"min":[-1,-0.9675379991531372,-1],"type":"VEC3"},{"bufferView":42,"componentType":5126,"count":24,"max":[0.671875,0.583972692489624],"min":[0.45710718631744385,0.171875],"type":"VEC2"},{"bufferView":43,"componentType":5123,"count":36,"max":[23],"min":[0],"type":"SCALAR"}],"materials":[{"pbrMetallicRoughness":{"metallicFactor":0,"roughnessFactor":1,"baseColorTexture":{"index":0}},"alphaMode":"MASK","alphaCutoff":0.05,"doubleSided":true}],"textures":[{"sampler":0,"source":0,"name":"texture"}],"samplers":[{"magFilter":9728,"minFilter":9728,"wrapS":33071,"wrapT":33071}],"images":[{"mimeType":"image/png","uri":"data:image/png;base64,"}],"meshes":[{"primitives":[{"mode":4,"attributes":{"POSITION":0,"NORMAL":1,"TEXCOORD_0":2},"indices":3,"material":0}]},{"primitives":[{"mode":4,"attributes":{"POSITION":4,"NORMAL":5,"TEXCOORD_0":6},"indices":7,"material":0}]},{"primitives":[{"mode":4,"attributes":{"POSITION":8,"NORMAL":9,"TEXCOORD_0":10},"indices":11,"material":0}]},{"primitives":[{"mode":4,"attributes":{"POSITION":12,"NORMAL":13,"TEXCOORD_0":14},"indices":15,"material":0}]},{"primitives":[{"mode":4,"attributes":{"POSITION":16,"NORMAL":17,"TEXCOORD_0":18},"indices":19,"material":0}]},{"primitives":[{"mode":4,"attributes":{"POSITION":20,"NORMAL":21,"TEXCOORD_0":22},"indices":23,"material":0}]},{"primitives":[{"mode":4,"attributes":{"POSITION":24,"NORMAL":25,"TEXCOORD_0":26},"indices":27,"material":0}]},{"primitives":[{"mode":4,"attributes":{"POSITION":28,"NORMAL":29,"TEXCOORD_0":30},"indices":31,"material":0}]},{"primitives":[{"mode":4,"attributes":{"POSITION":32,"NORMAL":33,"TEXCOORD_0":34},"indices":35,"material":0}]},{"primitives":[{"mode":4,"attributes":{"POSITION":36,"NORMAL":37,"TEXCOORD_0":38},"indices":39,"material":0}]},{"primitives":[{"mode":4,"attributes":{"POSITION":40,"NORMAL":41,"TEXCOORD_0":42},"indices":43,"material":0}]}]}